<?xml version="1.0" standalone="no"?>
<!DOCTYPE svg PUBLIC "-//W3C//DTD SVG 1.1//EN" "http://www.w3.org/Graphics/SVG/1.1/DTD/svg11.dtd" >
<svg xmlns="http://www.w3.org/2000/svg">
<metadata></metadata>
<defs>
<font id="aspiredemibold" horiz-adv-x="608" >
<font-face units-per-em="2048" ascent="1638" descent="-410" />
<missing-glyph horiz-adv-x="563" />
<glyph horiz-adv-x="2048" />
<glyph horiz-adv-x="2048" />
<glyph unicode="&#xd;" horiz-adv-x="563" />
<glyph unicode=" "  horiz-adv-x="563" />
<glyph unicode="&#x09;" horiz-adv-x="563" />
<glyph unicode="&#xa0;" horiz-adv-x="563" />
<glyph unicode="!" horiz-adv-x="303" d="M-203 55q0 16 10 41q27 27 46 27q37 0 69 -43l4 -27q0 -27 -18 -47t-45 -20q-29 0 -47.5 21.5t-18.5 47.5zM-102 315q133 543 280 1026l133 60q-212 -566 -370 -1086h-43z" />
<glyph unicode="&#x22;" horiz-adv-x="415" d="M100 985q4 25 31 182q18 113 19 185q0 33 -5 61l37 23h58l30 -66l-125 -385h-45zM311 985q2 25 29 182q20 113 20 185q0 33 -4 61l41 23h52l32 -66l-123 -385h-47z" />
<glyph unicode="#" horiz-adv-x="1247" d="M16 410l33 98h227l78 328h-250l25 98h246l100 426h74l-103 -426h242l98 426h72l-102 -426h256l-33 -98h-248l-80 -328h269l-23 -98h-262l-103 -414h-73l102 414h-242l-96 -414h-73l98 414h-232zM344 504h242l78 327h-238z" />
<glyph unicode="$" horiz-adv-x="679" d="M-291 86l55 64q90 -76 195 -111l92 348q-55 10 -86 64q-29 45 -28 106q0 102 71 180q66 72 170 103l47 159h45l-45 -149h90l43 149h43l-43 -151l142 -43l-35 -72l-121 51l-100 -338q115 -47 114 -165q0 -98 -72.5 -175t-172.5 -108l-50 -178h-47l52 174h-82l-49 -174h-46 l54 174q-104 18 -236 92zM-10 582q0 -45 22 -76q23 -37 66 -33l90 305q-178 -69 -178 -196zM0 31l88 6l90 321l-78 17zM125 465l78 -6l94 325h-84zM139 45q61 20 108.5 68.5t47.5 109.5q0 56 -78 109z" />
<glyph unicode="%" horiz-adv-x="1171" d="M-92 518q0 117 65 217q76 115 189 115q39 0 111.5 -19.5t111.5 -19.5q70 0 138.5 44t94.5 42h33l-555 -1073h-69l501 969q-109 -45 -227 -25q12 -53 12 -113q0 -131 -59 -231q-68 -119 -191 -119q-80 0 -120 70q-35 57 -35 143zM-18 432q0 -33 24.5 -59.5t56.5 -26.5 q76 0 134 139q45 115 45 205q0 107 -76 107q-84 0 -139 -146q-45 -117 -45 -219zM428 188q0 135 74 232q80 106 211 106q68 0 104 -73q29 -57 29 -134q0 -111 -70 -217q-78 -116 -182 -116q-82 0 -124 59t-42 143zM502 127q0 -41 24.5 -71.5t65.5 -30.5q76 0 133 131 q47 111 47 200q0 119 -63 119q-92 0 -156 -131q-51 -111 -51 -217z" />
<glyph unicode="&#x26;" horiz-adv-x="1507" d="M-59 289q0 125 129 241q78 70 239 160v15q-217 47 -217 180q0 147 205 291q190 133 346 133q66 0 114 -33t48 -96q0 -68 -66 -152q-31 -39 -116 -127l-74 57q57 53 117 107q72 76 71 131q0 68 -65 68q-147 0 -310 -115q-174 -125 -174 -268q0 -57 76 -103q61 -29 123 -59 l23 -39q-31 -76 -129 -141q-82 -51 -164 -103q-80 -68 -80 -164q0 -92 88 -155q80 -57 178 -58q231 0 399 78q223 102 224 307q0 102 -123 103q-70 0 -135 -37q-74 -43 -74 -109q0 -49 86 -125q-41 -25 -84 -24q-41 68 -41 133q0 180 190 219q178 10 357 21q190 18 190 145 q0 123 -194 123l32 74q88 0 144.5 -53.5t56.5 -139.5q0 -133 -117 -192q-65 -33 -233 -56q14 -43 14 -86q0 -199 -245 -334q-209 -117 -426 -116q-156 0 -261 69q-123 82 -122 230z" />
<glyph unicode="'" horiz-adv-x="204" d="M70 995q16 106 30 213q16 131 13 215l34 23h52l28 -66l-114 -385h-43z" />
<glyph unicode="(" horiz-adv-x="827" d="M92 -6q0 717 557 1460l17 -41q-508 -762 -508 -1829h-33q-33 205 -33 410z" />
<glyph unicode=")" horiz-adv-x="827" d="M-182 -410q500 834 499 1602q0 125 -12 252h39q33 -186 33 -604q0 -276 -172 -660q-145 -326 -348 -598z" />
<glyph unicode="*" d="M96 1284l62 68l131 -70v139l94 23l-49 -174l147 47l35 -86l-182 -2l88 -119q-6 -33 -53 -61l-72 157l-102 -141q-35 37 -52 68l125 102z" />
<glyph unicode="+" horiz-adv-x="1247" d="M147 553v94h418v502h99v-502h407v-94h-412v-516h-94v516h-418z" />
<glyph unicode="," horiz-adv-x="231" d="M-199 -217q87 86 138 186q-57 2 -58 66q0 72 60 71q63 0 63 -81q0 -72 -65 -150q-31 -39 -121 -119z" />
<glyph unicode="." horiz-adv-x="231" d="M-100 61q0 41 53 41t53 -51q0 -63 -51 -63q-25 0 -40 23.5t-15 49.5z" />
<glyph unicode="/" horiz-adv-x="376" d="M-164 -10l346 866h66l-350 -868l-29 -2z" />
<glyph unicode="0" horiz-adv-x="755" d="M-156 295q0 180 113 364q127 207 297 207q119 0 182 -127q51 -100 51 -233q0 -172 -122 -338q-131 -180 -297 -180q-104 0 -168 104q-55 92 -56 203zM-61 250q0 -80 28 -144q39 -80 111 -79q131 0 233 223q84 188 84 340q0 223 -162 223q-127 0 -219 -225 q-76 -186 -75 -338z" />
<glyph unicode="1" horiz-adv-x="376" d="M-166 0l170 639l-76 -107l-39 21q102 127 211 303h56l-236 -856h-86z" />
<glyph unicode="2" horiz-adv-x="679" d="M-225 4q227 162 340 275q203 199 202 362q0 66 -38.5 118t-100.5 52q-152 0 -241 -254l-80 31q39 113 130 189.5t206 76.5q98 0 158.5 -65.5t60.5 -163.5q0 -154 -156 -310q-78 -78 -283 -225h353l-29 -86h-522z" />
<glyph unicode="3" horiz-adv-x="679" d="M-254 43l27 84q133 -86 250 -86q104 0 174.5 65.5t70.5 167.5q0 100 -78 123q-23 4 -163 4q35 41 120 93q94 53 123 81q57 55 58 136q0 43 -33 74.5t-78 31.5q-115 0 -262 -194l-55 41q141 197 350 196q70 0 117 -44t47 -111q-1 -150 -226 -263q78 -10 129 -51 q61 -47 62 -119q0 -143 -156 -219q-123 -61 -282 -61q-37 0 -195 51z" />
<glyph unicode="4" horiz-adv-x="679" d="M-227 152l460 704h82l-432 -610h275l147 485l103 31l-152 -520l129 -4l-27 -86l-133 -5l-59 -178l-96 -24l55 207h-352z" />
<glyph unicode="5" horiz-adv-x="679" d="M-283 27l27 79q106 -66 207 -65q123 0 223 99.5t100 224.5q0 113 -135 112q-94 0 -198 -71l-11 20l125 422h348l-24 -82l-303 -8l-76 -256q160 18 184 18q84 0 132.5 -59.5t48.5 -145.5q0 -154 -142 -241q-121 -76 -282 -76q-109 0 -224 29z" />
<glyph unicode="6" horiz-adv-x="720" d="M-166 240q0 270 465 675l23 -28q-387 -383 -388 -690q0 -160 109 -160t197 121q84 113 84 225q0 43 -29 78t-72 35q-102 0 -205 -172l-26 18q100 209 258 209q70 0 118 -50t48 -122q0 -137 -111 -261t-246 -124q-94 0 -159.5 75.5t-65.5 170.5z" />
<glyph unicode="7" horiz-adv-x="567" d="M-127 754l45 94h473l-420 -844h-88l408 750h-418z" />
<glyph unicode="8" horiz-adv-x="720" d="M-174 217q0 86 68 156q59 61 149 88q-80 84 -80 182q0 109 84 168q74 53 189 53q86 0 151.5 -60.5t65.5 -146.5q0 -76 -58.5 -136t-136.5 -72q111 -78 111 -199q0 -113 -89.5 -184.5t-205.5 -71.5q-102 0 -175 61.5t-73 161.5zM-102 190q0 -76 61 -120q55 -43 133 -43 q80 0 136.5 46t56.5 126q0 133 -201 215q-74 -16 -130 -83t-56 -141zM41 643q0 -49 54.5 -108.5t101.5 -59.5q76 0 128 58.5t52 134.5q0 72 -46 112.5t-120 40.5q-72 0 -121 -53t-49 -125z" />
<glyph unicode="9" horiz-adv-x="720" d="M-117 508q0 139 104.5 248.5t241.5 109.5q109 0 166 -75q53 -68 54 -179q0 -193 -146 -383q-94 -121 -299 -295l-33 13q395 383 396 719q0 66 -33 109.5t-96 43.5q-111 0 -193 -119q-76 -109 -76 -223q0 -139 97 -139q53 0 180 102l24 -24q-109 -125 -217 -125 q-80 0 -127 71q-43 61 -43 146z" />
<glyph unicode=":" horiz-adv-x="264" d="M-113 41q0 25 13 43l49 27q23 0 53 -23q10 -23 10 -45q0 -63 -53 -63q-16 0 -49 8q-23 25 -23 53zM-31 360q0 51 45 68q74 0 74 -68q0 -63 -63 -63q-55 0 -56 63z" />
<glyph unicode=";" horiz-adv-x="264" d="M-195 -227q123 118 146 198q-66 0 -66 66q0 27 17.5 48t42.5 21q70 0 69 -77q0 -125 -198 -287zM-35 360q0 41 39 68h31q49 0 49 -59q0 -27 -14 -56q-20 -12 -41 -12q-63 0 -64 59z" />
<glyph unicode="&#x3c;" horiz-adv-x="774" d="M-39 381v92q207 106 416 213q330 168 379 168l6 -2v-94q-168 -86 -336 -170q-201 -102 -342 -160l678 -332v-100z" />
<glyph unicode="=" horiz-adv-x="864" d="M-8 293v90h852v-90h-852zM-8 487v93h852v-93h-852z" />
<glyph unicode="&#x3e;" horiz-adv-x="774" d="M-39 -4v100l672 334l-672 328v98l29 -2l772 -381v-92z" />
<glyph unicode="?" horiz-adv-x="491" d="M-188 63q0 23 24.5 40.5t48.5 17.5q57 0 58 -66q-1 -67 -64 -67q-68 0 -67 75zM-117 260l115 297q27 68 192 246q143 158 144 250q0 90 -92 90q-76 0 -164 -119q-14 -20 -113 -184l-63 69q150 287 317 287q78 0 126 -52t48 -128q0 -100 -205 -357q-223 -280 -258 -399 h-47z" />
<glyph unicode="@" horiz-adv-x="1716" d="M-20 575q0 344 281.5 608.5t627.5 264.5q383 0 590 -178q221 -190 221 -568q0 -203 -139 -395q-152 -211 -347 -211q-86 0 -146 53.5t-73 137.5q-117 -188 -309 -189q-131 0 -201 127q-57 104 -57 248q0 188 139 361q145 182 332 182q137 0 223 -191q16 41 47 166h162 q-12 -115 -110 -364q-92 -231 -93 -342q0 -43 38 -76t81 -33q160 0 281 209q106 182 106 354q0 287 -215 469q-203 170 -493 170q-317 0 -571.5 -238.5t-254.5 -553.5q0 -373 221.5 -595t593.5 -222q258 0 607 223l32 -37q-334 -252 -647 -252q-412 0 -665 229 q-262 238 -262 643zM569 414q0 -88 39 -152q47 -74 129 -74q127 0 244 187q109 172 109 307q0 80 -48 164q-55 98 -127 98q-152 0 -258 -196q-88 -168 -88 -334z" />
<glyph unicode="A" horiz-adv-x="1359" d="M-633 43l70 53q174 -78 342 -78q274 0 565 283q186 184 471 602q295 430 402 541l34 -4q39 -39 39 -111q0 -176 -100 -461q-82 -217 -162 -436h88v-20l-108 -17l-148 -399h-67q-29 117 -109 231q-4 8 -160 205q-186 -217 -348 -319q-209 -131 -450 -131q-174 0 -359 61z M545 453q184 -37 375 -37q208 465 292 944h-16q-150 -174 -336 -445q-158 -231 -315 -462zM596 399q98 -129 209 -348l110 330z" />
<glyph unicode="B" horiz-adv-x="1132" d="M-176 47q0 233 108 440q63 117 263 373q39 49 55 74q29 43 43 80q0 2 102 348l127 72l-69 -267q283 276 465 277q80 0 126 -52.5t46 -134.5q-1 -301 -533 -602v-8q168 -96 176 -102q94 -72 94 -170q0 -178 -151 -271q-115 -70 -332 -92q-51 -4 -332 -12l90 102 q389 -4 390 -4q92 0 167.5 61.5t75.5 153.5q0 78 -73 136q-14 10 -138 75q-73 40 -73 81q0 9 10 44q227 145 338 258q174 182 174 373q0 82 -88 82q-104 0 -264 -115q-145 -104 -211 -205q-49 -72 -142 -362q-102 -319 -170 -453q-115 -225 -250 -239zM-111 137l9 -31 q84 78 198 357q84 201 146 397q-121 -117 -222 -338q-84 -184 -131 -385z" />
<glyph unicode="C" horiz-adv-x="1099" d="M-76 391q0 227 152 479q150 244 373 404q240 172 469 172q72 0 122 -29q63 -37 64 -104q0 -215 -494 -395l23 112q209 98 244 119q167 95 167 175q0 79 -126 79q-180 0 -398 -174q-201 -162 -342 -393q-147 -240 -147 -416q0 -365 342 -365q182 0 424 140l16 -35 q-172 -94 -233 -119q-121 -47 -256 -47q-190 0 -295 103.5t-105 293.5z" />
<glyph unicode="D" horiz-adv-x="1695" d="M-139 86q0 66 121 104q92 29 178 29q123 0 289 -45q109 127 194 311q51 106 135 340q82 227 137 342q-111 92 -260 156q-160 63 -295 63q-221 0 -221 -116q0 -59 66 -148q2 -2 106 -129l-63 -49q-174 145 -174 301q0 96 90 152q78 47 180 47q139 0 307 -60 q53 -18 291 -122l41 120l111 39l-76 -221q170 -133 274 -297q125 -195 125 -379q0 -248 -176 -391q-164 -135 -416 -135q-199 0 -422 80q-188 -88 -327 -88q-131 0 -211 69zM-45 68q76 -35 145 -35q104 0 215 49q-98 29 -200 29q-106 0 -160 -43zM516 141q252 -63 258 -63 h234q117 0 224 106.5t107 223.5q0 332 -352 688q-90 -256 -180 -510q-125 -303 -291 -445z" />
<glyph unicode="E" horiz-adv-x="1060" d="M-182 276q0 160 102 275q68 78 221 168q166 96 211 137q-90 72 -90 174q0 176 240 305q203 109 397 109q182 0 182 -135q0 -31 -63 -150q-45 -75 -88 -153l-60 75q33 59 64 119q37 72 51 127l-14 45q-39 27 -97 27q-150 0 -327 -119q-195 -131 -195 -272q0 -88 68 -199 q-29 -47 -172 -141q-172 -113 -238 -179q-121 -117 -121 -247q0 -98 74 -152q66 -45 168 -45q231 0 627 180q-6 -76 -29 -125q-248 -68 -258 -71q-147 -35 -264 -35q-160 0 -262 59q-127 74 -127 223z" />
<glyph unicode="F" horiz-adv-x="1132" d="M-313 82l65 70q47 -39 151.5 -81t162.5 -42q193 0 354 116q156 113 227 297h-207l17 62l217 8l264 756l121 45l-273 -801l181 -8l-17 -62h-184q-104 -238 -271 -348t-425 -110q-217 0 -383 98zM45 1212q0 111 191 177q147 51 288 51h197q328 0 561 -27l-84 -88 q-209 20 -518 21h-358q-82 0 -146 -27q-88 -35 -88 -102q0 -80 166 -125q4 0 231 -41l-71 -74q-117 0 -232 59q-137 70 -137 176z" />
<glyph unicode="G" horiz-adv-x="1132" d="M-96 401q0 225 164 476q158 238 393 397q248 168 473 168q207 0 207 -154q0 -96 -142 -233q-100 -99 -227 -183l-80 54q115 86 230 170q151 126 151 214q0 3 -12 44q-51 41 -123 41q-195 0 -420 -174q-209 -160 -352 -396q-150 -244 -150 -434q0 -154 82 -252 q86 -104 238 -104q133 0 291 115q25 131 110 272q53 14 125 18q-78 -119 -168 -399q-82 -252 -168 -348q-133 -150 -403 -150q-35 0 -92 8q-72 10 -94 13l-15 94q72 -20 144 -41q84 -23 147 -23q158 0 264 152q88 125 117 301q-131 -59 -268 -59q-193 0 -307.5 111.5 t-114.5 301.5z" />
<glyph unicode="H" horiz-adv-x="1435" d="M-561 111l65 65q150 -68 185 -82q104 -37 198 -37q283 0 533 508q154 311 272 766q57 66 150 72q-139 -422 -357 -899q221 -70 506 -70l305 969l129 53l-346 -1022h140l-15 -47l-139 -10l-131 -373h-55q-63 117 -185 266q-152 186 -231 195q-80 -176 -219 -307 q-166 -158 -330 -158q-274 0 -475 111zM612 414q150 -125 269 -314l94 271q-158 2 -363 43z" />
<glyph unicode="I" horiz-adv-x="983" d="M-307 72l43 84q174 -74 180 -76q104 -37 190 -37q160 0 277 145q51 63 162 283q-156 125 -156 334q0 162 113 385q129 254 270 254q31 0 68 -33q30 -89 30 -176v-6q0 -131 -71 -381q-67 -226 -135 -369l147 -39l-6 -45l-164 31q-141 -246 -215 -313q-125 -113 -354 -113 q-164 0 -379 72zM479 770q0 -150 84 -246q86 184 152 389q86 260 86 402q0 44 -23 71q-16 4 -22 5q-92 0 -191 -267q-86 -236 -86 -354z" />
<glyph unicode="J" horiz-adv-x="868" d="M-424 -276q0 266 309 485q266 188 559 229q252 557 252 860q0 86 -41 86q-115 0 -180 -247q-49 -180 -49 -344q0 -29 14 -80q10 -39 23 -80l-70 -86q-55 150 -55 289q0 160 86 362q104 244 240 244q45 0 81 -60q31 -53 31 -102q0 -357 -215 -834l76 -4q-6 -39 -35 -63 l-78 -10q-115 -262 -323 -523q-265 -333 -462 -333h-1q-84 0 -127 67q-35 55 -35 144zM-369 -276q0 -162 82 -162q172 0 410 311q188 252 276 475q-264 -43 -493 -201q-275 -187 -275 -423z" />
<glyph unicode="K" horiz-adv-x="1400" d="M-498 59l72 66q59 -20 119 -41q74 -25 119 -25t170 9q256 12 481 542q117 272 244 768l120 72q-145 -608 -292 -909q-273 -545 -689 -545q-92 0 -344 63zM584 530q297 340 798 902h127q-225 -223 -448 -445q-321 -323 -391 -434q113 -129 227 -258q176 -203 180 -246 l-71 -53q-408 440 -422 534z" />
<glyph unicode="L" horiz-adv-x="1171" d="M-299 125q0 98 109 145q82 37 194 37q98 0 383 -76q12 29 148 435q117 346 221 522q147 254 311 254q61 0 96 -53q27 -45 27 -113q0 -82 -31 -191q-30 -92 -59 -184l-117 -29q137 334 137 435q0 2 -18 59l-47 25q-104 -25 -232 -281q-78 -156 -209 -506 q-121 -326 -163 -399q236 -104 442 -125l-74 -76h-18h-12q-111 0 -406 131q-178 -158 -412 -158q-100 0 -170 27q-100 39 -100 121zM-248 123q0 -106 205 -107q205 0 365 136q-219 79 -338 79q-231 0 -232 -108z" />
<glyph unicode="M" horiz-adv-x="1591" d="M-20 936q23 143 118 305q117 195 236 195q47 0 74 -90q18 -66 18 -129q0 -227 -205 -811q463 964 682 964q45 0 70 -59q16 -43 16 -99q0 -115 -162 -507q-182 -441 -209 -562q98 201 197 400q156 313 272 493q166 246 283 279l64 -23q33 -66 32 -131q0 -137 -166 -637 q-115 -342 -229 -684l-70 66q20 88 218 694q176 551 176 592t-15 63l-28 11q-123 -53 -269 -328q-125 -262 -247 -524q-150 -309 -258 -408l-41 -4q-20 49 -21 100q0 180 184 580q195 426 215 600l-18 25l-20 8q-143 -49 -441 -594q-193 -354 -352 -723h-96 q365 1061 364 1331l-4 27l-41 24l-31 -10q-106 -156 -145 -231q-53 -109 -86 -262z" />
<glyph unicode="N" horiz-adv-x="1212" d="M-27 870q78 180 164 328q141 242 228 242l38 -4q45 -53 46 -123q0 -332 -240 -987q538 1046 784 1046q54 0 89.5 -43t35.5 -96q0 -102 -178 -668q-200 -639 -225 -758q-70 2 -94 62q35 143 153 453q141 367 184 499q82 258 82 413v21q-2 63 -57 64q-147 0 -483 -576 q-195 -336 -389 -745h-95q367 1212 367 1358l-6 33h-17q-170 -219 -319 -586z" />
<glyph unicode="O" horiz-adv-x="1359" d="M-63 510q0 332 245 627q256 309 582 309q215 0 338 -154q115 -143 115 -362q0 -319 -240 -621q-252 -317 -563 -317q-225 0 -355 149q-123 141 -122 369zM45 446q0 -186 84 -294q94 -119 274 -119q301 0 512 321q188 289 189 604q0 184 -76 299q-90 138 -262 138 q-319 0 -533 -324q-188 -289 -188 -625z" />
<glyph unicode="P" horiz-adv-x="1015" d="M-209 -92q0 27 100 317q111 324 123 369q117 440 140 766q43 37 102 37h6q-25 -266 -88 -533q281 578 600 578q227 0 227 -283q0 -186 -149 -393q-139 -195 -348 -326q-218 -135 -402 -135l31 84q307 0 537 250q223 244 223 557q0 193 -145 193q-203 0 -404 -330 q-147 -246 -295 -682q-29 -88 -172 -570q-86 2 -86 101z" />
<glyph unicode="Q" horiz-adv-x="1288" d="M-104 500q0 350 258 643q266 301 612 301q184 0 303 -158q106 -143 107 -334q0 -276 -154 -534q-162 -273 -408 -375q90 -143 234 -178l-43 -64q-170 43 -281 203q-76 -16 -151 -16q-223 0 -350 143t-127 369zM0 440q0 -109 37 -211q45 -129 127 -161q-29 39 -29 92 q0 72 47 114.5t119 42.5q141 0 287 -233q199 84 342 369q131 260 131 497q0 164 -66 287q-81 154 -231 154q-324 0 -555 -320q-209 -293 -209 -631zM190 133q0 -110 167 -110h3q61 0 129 20q-106 188 -206 188q-92 0 -93 -98z" />
<glyph unicode="R" horiz-adv-x="1099" d="M-221 25q272 690 430 1361l123 44q-127 -469 -262 -867q453 881 841 881q84 0 138 -80q47 -70 47 -158q0 -258 -240 -434q-162 -121 -471 -221q-54 -16 -156 -55q76 -111 211 -234q39 -37 242 -205q-33 -41 -78 -55q-430 352 -465 481q6 39 41 62q289 68 531 241 q301 215 301 465q0 137 -131 138q-252 0 -607 -572q-246 -399 -409 -813l-19 -14z" />
<glyph unicode="S" horiz-adv-x="1171" d="M-324 100l74 80q291 -133 547 -133q174 0 301 59q166 76 166 232q0 104 -143 221q-131 100 -263 201q-143 123 -143 244q0 229 279 346q209 90 475 90q74 0 133 -37q70 -41 69 -111q0 -98 -104 -194q-20 -21 -184 -142l-101 56q311 170 312 297q0 82 -201 82 q-182 0 -365 -93q-217 -111 -217 -272q0 -88 140 -197l258 -200q139 -131 139 -273q0 -209 -238 -299q-164 -61 -413 -61q-211 0 -521 104z" />
<glyph unicode="T" horiz-adv-x="1132" d="M-172 86l76 70q152 -106 313 -107q324 0 545 498q139 315 221 782q-160 18 -371 19q-518 0 -518 -136q0 -72 166 -110q16 -4 225 -35l-71 -74q-115 0 -230 51q-141 63 -141 162q0 232 809 232h41l217 -2q-258 -1440 -874 -1440q-219 0 -408 90z" />
<glyph unicode="U" horiz-adv-x="1247" d="M-2 1020q33 113 141 258q125 166 217 166q45 0 68 -43q20 -35 20 -82q0 -180 -148.5 -571.5t-148.5 -589.5q0 -92 119 -92q215 0 490 561q180 362 307 770l104 10q-227 -672 -358 -1407l-94 43v18q0 98 157 691q-121 -276 -249 -463q-205 -299 -390 -299q-115 0 -157 82 q-29 59 -29 186q0 184 153.5 555t153.5 547q0 8 -8 24l-20 -2q-109 -119 -263 -426z" />
<glyph unicode="V" horiz-adv-x="1132" d="M6 1065q176 381 293 381q115 0 115 -195q0 -176 -51.5 -525t-51.5 -527q0 -152 80 -152q125 0 371 391q170 272 287 733q18 96 53 228q30 49 84 49h4h33q-96 -414 -303 -850q-289 -604 -549 -604q-160 0 -160 293q0 104 33 272q41 215 49 272q29 260 29 517q0 4 -9 38 l-28 9q-70 -76 -127 -197q-23 -47 -90 -215z" />
<glyph unicode="W" horiz-adv-x="1779" d="M10 1065q111 201 131 231q100 143 199 144q109 0 109 -180q0 -152 -58 -568q-53 -401 -92 -571l23 -37q180 152 407 633q182 385 287 723h86q-156 -688 -156 -1276q0 -37 29 -98l24 -3q211 0 469 574q184 410 273 780l106 31q-88 -385 -313 -848q-297 -606 -549 -606 q-76 0 -119 80q-35 66 -35 147q0 342 82 778q-117 -311 -256 -571q-227 -424 -376 -424q-33 0 -45 12l-25 50q0 504 113 1007q41 178 41 217q0 55 -21 105h-27q-80 -55 -245 -402z" />
<glyph unicode="X" horiz-adv-x="1060" d="M-295 0l696 733q-51 307 -176 680l103 10q86 -272 155 -592l490 592h123q-158 -164 -316 -329q-219 -228 -278 -328q90 -379 223 -756l-102 -10q-131 350 -205 676l-590 -676h-123z" />
<glyph unicode="Y" horiz-adv-x="1212" d="M-106 -438l34 82q57 -12 115 -25q70 -14 119 -14q106 0 192 39q260 119 598 1329q-170 -317 -352 -574q-294 -409 -466 -409h-1q-123 0 -123 147q0 158 142 596q102 309 204 619l-18 39q-111 -70 -289 -435l-57 86q201 389 370 398l52 -39q14 -59 14 -72q0 -180 -86 -414 q-80 -199 -160 -397q-88 -233 -88 -412q0 -12 12 -51q39 -10 44 -10q182 0 534 563q260 418 403 756l95 6q-147 -633 -330 -1069q-313 -756 -657 -758h-97h-27q-135 0 -177 19z" />
<glyph unicode="Z" horiz-adv-x="1212" d="M-274 43l12 35q92 72 242 219q162 162 237 223q18 16 502 365q340 248 442 387v20q-279 55 -563 56q-446 0 -487 -140q6 -61 84 -90q31 -12 157 -37q100 -18 133 -47l-39 -57q-141 14 -239 55q-150 61 -150 170q0 133 217 193q145 41 326 41q494 0 662 -70l14 -59 q-223 -260 -690 -611q-539 -405 -719 -579v-15l1026 -4l18 -20l-51 -74h1l-1123 -8z" />
<glyph unicode="[" horiz-adv-x="796" d="M-88 -432l512 1872h213v-45h-131l-494 -1778h119v-49h-219z" />
<glyph unicode="\" horiz-adv-x="1247" d="M84 1309h147l869 -1338h-131z" />
<glyph unicode="]" horiz-adv-x="796" d="M-164 -387h133l494 1786l-121 4v41h225l-518 -1876h-213v45z" />
<glyph unicode="^" horiz-adv-x="679" d="M-68 555q152 139 265 297h34q35 -150 129 -297l-26 -16q-96 94 -141 163q-76 -80 -224 -163z" />
<glyph unicode="_" horiz-adv-x="1247" d="M0 -109h1247l-4 -55h-1243v55z" />
<glyph unicode="`" horiz-adv-x="679" d="M-41 809q0 18 16.5 34.5t34.5 16.5q33 0 51 -49q37 -100 41 -111q39 -72 115 -110l12 -33l-28 -18q-242 133 -242 270z" />
<glyph unicode="a" d="M-227 100q0 119 109.5 228.5t228.5 109.5q29 0 82 -14l-37 -53q-35 18 -72 18q-82 0 -150.5 -99.5t-68.5 -185.5q0 -41 49 -41q61 0 166 154q4 2 133 211h66l-62 -164q-43 -113 -43 -160q0 -14 6 -41h21l110 89h35q-12 -55 -72.5 -106.5t-117.5 -51.5q-78 0 -78 80 q0 39 18 92q-133 -172 -223 -172q-100 0 -100 106z" />
<glyph unicode="b" horiz-adv-x="532" d="M-205 76q0 27 140.5 533.5t166.5 584.5q23 61 72 61q12 0 45 -6l-268 -909q92 115 176 115q49 0 83 -41t34 -92q0 -125 -126 -227.5t-255 -102.5q-68 0 -68 84zM-133 74q0 -47 51 -47q63 0 145 114.5t82 184.5q0 32 -14 55l-31 8q-57 0 -145 -126t-88 -189z" />
<glyph unicode="c" horiz-adv-x="452" d="M-225 113q0 127 105.5 227t230.5 100q74 0 73 -57q-18 -25 -32 -37q-55 37 -99 37q-74 0 -133 -88q-51 -82 -51 -160q0 -84 63 -84q47 0 105 41l90 70l12 -35q-135 -135 -243 -135q-53 0 -87 33.5t-34 87.5z" />
<glyph unicode="d" d="M-223 125q0 106 105.5 216t211.5 110q41 0 82 -15q80 264 227 795l119 69l-309 -1044q-31 -106 -31 -145q0 -12 6 -35l25 -8q35 10 135 127q-8 -70 -59 -129q-55 -66 -121 -66q-8 0 -41 8q-32 32 -32 96q0 19 3 41q-97 -151 -201 -151h-1q-53 0 -86 38t-33 93zM-121 139 q0 -94 64 -94q43 0 131 133t88 182q0 48 -68 48q-84 0 -153 -95q-61 -88 -62 -174z" />
<glyph unicode="e" horiz-adv-x="452" d="M-126 319.5q95 116.5 183 116.5t88 -82q0 -141 -270 -256v-7q0 -48 49 -48q80 0 189 125h24q-14 -63 -97 -120.5t-149 -57.5q-112 0 -112 119q0 94 95 210.5zM-121 139q70 31 129 84q76 66 76 125q0 14 -31 41q-63 -6 -119 -96q-49 -82 -55 -154z" />
<glyph unicode="f" horiz-adv-x="376" d="M-365 -430q139 324 226 649l-51 8q66 68 161 383q141 461 168 531q104 268 201 268q70 0 70 -111q0 -225 -105 -434q-47 -96 -201 -317q-119 -166 -133 -262q86 31 168 90l8 -49q-94 -63 -188 -99q-80 -289 -192 -612zM27 496q129 180 223 391q119 256 119 426 q0 16 -23 28q-137 -156 -319 -845z" />
<glyph unicode="g" d="M-227 -362q0 70 57 137q31 39 119 112q82 68 108 107q23 33 45 151q-114 -163 -212 -163h-1q-47 0 -76.5 37.5t-29.5 84.5q0 127 127 234q121 100 250 100q37 0 94 -12l-12 -66q-51 29 -105 29q-104 0 -180 -87t-76 -191q0 -57 43 -58q86 0 254 299l53 -12l-53 -250 l88 78l21 -37q-63 -59 -131 -125q-23 -35 -67 -172t-83 -199q-59 -92 -147 -92q-86 0 -86 95zM-176 -387q0 -35 31 -35q94 0 182 332q-213 -176 -213 -297z" />
<glyph unicode="h" d="M-225 0q141 612 350 1231l106 24l-297 -1009q135 203 228 203q76 0 76 -113q0 -59 -33 -137q-29 -68 -58 -133l13 -13q63 2 123 107l53 20q-16 -70 -72 -127q-61 -65 -127 -65q-10 0 -43 8q-23 20 -28 57q33 104 98 314l-17 26h-2q-66 0 -170 -164q-80 -123 -120 -229 h-80z" />
<glyph unicode="i" horiz-adv-x="335" d="M-188 66q0 74 98 356l96 20q-29 -90 -57 -182q-35 -113 -45 -186q27 -4 26 -4q29 0 109 120q10 -33 10 -57q-20 -37 -78 -88q-63 -59 -94 -59q-29 0 -47 25.5t-18 54.5zM-33 643q0 35 43 57q66 -10 66 -59q-1 -53 -58 -59l-28 8q-23 18 -23 53z" />
<glyph unicode="j" horiz-adv-x="303" d="M-377 -424q20 90 127 358q90 219 144 472l98 32l-105 -350l82 76l17 -37q-47 -47 -133 -143q-66 -219 -66 -222q-55 -174 -96 -217l-33 -10q-20 0 -35 41zM-51 629q0 67 50 67h1h20l33 -24l10 -37q0 -62 -59 -62q-20 0 -37.5 16.5t-17.5 39.5z" />
<glyph unicode="k" horiz-adv-x="567" d="M-231 0l350 1231l108 49q-139 -514 -305 -1059q156 225 262 225q39 0 67 -27.5t28 -66.5q0 -63 -62 -123q-53 -48 -123 -75q29 -74 115 -109l-66 -55l-139 114l-6 46q66 29 125 79q74 63 74 119q0 37 -41 37q-106 0 -308 -385h-79z" />
<glyph unicode="l" horiz-adv-x="376" d="M-182 244q27 80 80 135q47 211 180 569q170 457 264 457q76 0 76 -92q0 -88 -27 -156l-106 -274q-25 -61 -142 -226q-113 -156 -120 -186q-82 -277 -80 -377l2 -28h28l119 114l17 -39q-45 -47 -89 -92q-55 -49 -112 -57l-43 20q-20 37 -21 70q0 51 39 217zM53 584 q123 164 205 346q102 219 104 383v22q-68 -18 -182 -342q-72 -200 -127 -409z" />
<glyph unicode="m" horiz-adv-x="868" d="M-225 0l94 389q9 39 74 39h12h16q-20 -104 -57 -238q147 244 244 244q69 0 69 -80q0 -12 -32 -141q129 223 219 223q29 0 61.5 -23.5t32.5 -50.5q0 -43 -36 -125.5t-36 -121.5q0 -16 6 -56q37 0 82 43q35 35 68 70l29 -35q-51 -47 -103 -94q-68 -55 -121 -55l-37 12 l-22 37q2 66 78 330l-13 12q-109 -53 -278 -379h-98q119 303 120 356l-14 25q-53 -6 -153 -166q-63 -109 -125 -215h-80z" />
<glyph unicode="n" d="M-225 4l114 416l99 20l-70 -245q49 76 100 151q74 98 146 98q27 0 54.5 -25.5t27.5 -51.5q0 -59 -43 -154q-49 -104 -56 -152l29 -2h1q37 0 138 121l9 -43q-87 -147 -181 -147q-80 0 -80 84q0 53 50.5 146t50.5 142q0 16 -14 29q-80 -31 -177 -178q-63 -106 -129 -213z " />
<glyph unicode="o" horiz-adv-x="491" d="M-215 129q0 113 84 212t194 99q129 0 130 -149q0 -109 -79.5 -202t-185.5 -93q-63 0 -103 36t-40 97zM-127 115q0 -86 59 -86q68 0 127 110q51 96 52 172q0 80 -68 80q-59 0 -119 -110q-51 -98 -51 -166z" />
<glyph unicode="p" d="M-360 -461q147 461 258 885l108 18q-31 -88 -86 -268q115 264 240 264q61 0 98 -48t37 -111q0 -109 -80 -202t-186 -93q-49 0 -103 36l21 52q39 -41 73 -41q72 0 132 108q51 96 51 174q0 76 -47 76q-104 0 -252 -358q-86 -215 -158 -465z" />
<glyph unicode="q" d="M-223 94q0 150 123 252q117 96 270 96q80 0 80 -36q0 -23 -27 -48q-49 37 -96 37q-98 0 -175 -93t-77 -191q0 -68 41 -68q63 0 152 127l110 180l72 -10l-103 -289l33 4l131 111l29 -31l-154 -127q8 -39 9 -92q0 -106 -52 -225q-61 -145 -151 -146q-70 0 -70 66 q0 100 154 502q-100 -125 -189 -125q-111 0 -110 106zM8 -377l15 -26q51 12 83 120q27 84 27 158q0 51 -8 100q-33 -88 -68 -178q-49 -135 -49 -174z" />
<glyph unicode="r" horiz-adv-x="419" d="M-215 0l82 399l100 33l-41 -201q104 201 172 201l23 -4q33 -35 33 -86q-1 -90 -95 -125q2 39 2 117v12l-16 -4q-117 -188 -184 -342h-76z" />
<glyph unicode="s" horiz-adv-x="419" d="M-240 74q20 29 45 28q25 0 61 -29.5t60 -29.5q72 0 72 119q0 43 -31 184h-2l-137 -147l-31 10l166 192q2 33 26.5 73t55.5 40q8 0 23.5 -11t15.5 -20q0 -61 -55 -100q53 -92 53 -186q0 -92 -56.5 -149.5t-150.5 -57.5q-98 0 -115 84z" />
<glyph unicode="t" horiz-adv-x="335" d="M-211 72q0 10 117 415h-51l12 58h53l82 297l96 22l-88 -319h131l-6 -58h-133l-117 -401l9 -23q12 -4 18 -4q35 0 80 45q33 35 65 72l17 -39q-106 -145 -205 -145q-31 0 -55.5 25.5t-24.5 54.5z" />
<glyph unicode="u" d="M-193 45q0 143 84 375l99 14q-33 -94 -66 -186q-35 -113 -37 -195l21 -12q43 0 147 170q74 117 123 217h88l-84 -344l6 -18l13 -3l123 99l14 -39q-117 -131 -182 -131q-66 0 -66 96q0 59 39 178l-98 -164q-74 -106 -144 -106q-25 0 -49 12q-31 16 -31 37z" />
<glyph unicode="v" horiz-adv-x="491" d="M-174 145q0 100 65 275l99 14q-86 -238 -86 -328q0 -33 6 -61l18 -2q92 0 234 377l88 6q-59 -135 -141 -258q-119 -176 -203 -176q-80 0 -80 153z" />
<glyph unicode="w" horiz-adv-x="755" d="M-168 66q0 68 18 190q25 152 49.5 166t86.5 14q-2 -10 -54 -157q-32 -91 -32 -160q0 -43 10 -72q109 12 250 377l88 10q-98 -266 -98 -336q0 -27 16 -47l18 -2h6q75 0 142 148q41 113 80 227l75 10q-41 -154 -108 -270q-96 -170 -209 -170q-93 0 -93 129q0 15 1 31 q-88 -158 -187 -158q-18 0 -38.5 25.5t-20.5 44.5z" />
<glyph unicode="x" horiz-adv-x="419" d="M-291 -4l209 213l-45 203l86 8l39 -123l102 123h68l-160 -184l39 -236h-82l-35 150l-141 -154h-80z" />
<glyph unicode="y" d="M-109 420l99 14q-96 -262 -96 -348q0 -25 8 -49h6h1q72 0 271 391h88l-82 -328l78 66l8 -41q-53 -55 -112 -119q-18 -33 -57.5 -170t-73.5 -198q-56 -95 -140 -95q-74 0 -73 78q0 84 112 203q123 129 129 147q29 92 78 279q-139 -264 -250 -264q-75 0 -75 107 q0 91 81 327zM-137 -408l20 -16q90 0 148 291q-168 -144 -168 -275z" />
<glyph unicode="z" horiz-adv-x="452" d="M-270 4q23 43 340 340l-209 -4l18 76l322 8q-193 -221 -332 -344h240l-31 -80z" />
<glyph unicode="&#xa2;" horiz-adv-x="532" d="M-201 131q0 176 254 309l39 144h47l-47 -142l92 -6q10 -12 19 -39l-8 -37l-37 -6l-62 35h-12l-94 -328q78 18 160 103l10 -33q-84 -92 -191 -133l-49 -170h-37l47 160q-131 8 -131 143zM-104 127q0 -41 6 -53q10 -18 47 -25l78 324q-57 -33 -94 -104.5t-37 -141.5z" />
<glyph unicode="&#xa3;" horiz-adv-x="796" d="M-305 104q0 51 49 88t100 37q117 0 252 -41q57 78 74 181l-123 4l10 53l127 4q33 168 109 303q102 186 233 187q41 0 64 -50q16 -39 16 -86q0 -55 -55 -217l-96 -10q84 246 84 266q0 27 -15 47l-16 4q-82 -23 -146 -190q-12 -31 -73 -250l127 -8l-27 -53l-115 -4 q-25 -88 -98 -199q182 -74 281 -74l-70 -82q-143 12 -270 82q-111 -94 -252 -94q-57 0 -107 25q-63 29 -63 77zM-256 106q0 -68 111 -67q92 0 188 78q-96 43 -184 43q-115 0 -115 -54z" />
<glyph unicode="&#x2000;" horiz-adv-x="728" />
<glyph unicode="&#x2001;" horiz-adv-x="1456" />
<glyph unicode="&#x2002;" horiz-adv-x="728" />
<glyph unicode="&#x2003;" horiz-adv-x="1456" />
<glyph unicode="&#x2004;" horiz-adv-x="485" />
<glyph unicode="&#x2005;" horiz-adv-x="364" />
<glyph unicode="&#x2006;" horiz-adv-x="242" />
<glyph unicode="&#x2007;" horiz-adv-x="242" />
<glyph unicode="&#x2008;" horiz-adv-x="182" />
<glyph unicode="&#x2009;" horiz-adv-x="291" />
<glyph unicode="&#x200a;" horiz-adv-x="80" />
<glyph unicode="&#x2013;" horiz-adv-x="2048" />
<glyph unicode="&#x2014;" horiz-adv-x="2048" />
<glyph unicode="&#x2018;" horiz-adv-x="149" d="M-37 1307v96l33 33h74l30 -33v-64l-30 -32h-31l-16 -13q14 -78 110 -164h-29q-123 102 -141 177z" />
<glyph unicode="&#x2019;" horiz-adv-x="149" d="M63 1130q96 86 111 164l-16 13h-31l-31 32v64l31 33h74l32 -33v-96q-18 -74 -141 -177h-29z" />
<glyph unicode="&#x201c;" horiz-adv-x="415" d="M-29 1376l31 60h45l35 -19q-2 -20 -2 -47q0 -70 20 -196q29 -181 29 -189h-31zM195 1376l28 60h49l31 -19q-2 -20 -2 -47q0 -70 21 -196q28 -181 28 -189h-28z" />
<glyph unicode="&#x201d;" horiz-adv-x="415" d="M102 995q0 8 29 189q20 127 21 196q0 27 -2 47l30 19h49l29 -60l-127 -391h-29zM324 995q0 8 28 189q20 127 21 196q0 27 -2 47l35 19h45l30 -60l-127 -391h-30z" />
<glyph unicode="&#x2022;" horiz-adv-x="573" d="M176 688q0 39 26.5 72t63.5 33h80q72 -53 72 -121q0 -51 -37 -84t-88 -33q-55 0 -86 39t-31 94z" />
<glyph unicode="&#x202f;" horiz-adv-x="291" />
<glyph unicode="&#x205f;" horiz-adv-x="364" />
<glyph unicode="&#x25fc;" horiz-adv-x="419" d="M0 0v420h420v-420h-420z" />
</font>
</defs>
</svg>
